<?xml version="1.0" standalone="no"?>
<!DOCTYPE svg PUBLIC "-//W3C//DTD SVG 20010904//EN"
 "http://www.w3.org/TR/2001/REC-SVG-20010904/DTD/svg10.dtd">
<svg version="1.0" xmlns="http://www.w3.org/2000/svg"
 width="50.000000pt" height="50.000000pt" viewBox="0 0 300.000000 300.000000"
 preserveAspectRatio="xMidYMid meet">
<metadata>
Created by potrace 1.16, written by Peter Selinger 2001-2019
</metadata>
<g transform="translate(0.000000,300.000000) scale(0.100000,-0.100000)"
fill="#000000" stroke="none">
<path d="M1240 2975 c-313 -59 -598 -211 -813 -434 -210 -218 -336 -459 -397
-761 -19 -93 -21 -128 -17 -315 5 -234 21 -321 92 -507 183 -474 602 -824
1112 -927 144 -30 422 -30 566 0 510 103 929 453 1112 927 71 186 87 273 92
507 4 187 2 222 -17 315 -120 588 -539 1027 -1122 1176 -93 24 -124 27 -318
30 -155 2 -236 -1 -290 -11z m163 -327 c4 -117 10 -284 13 -370 l7 -158 34 0
33 0 0 -277 0 -278 -115 115 c-115 114 -115 115 -115 162 l0 48 -148 0 c-139
0 -151 -2 -200 -26 -152 -76 -175 -283 -42 -396 56 -49 98 -58 254 -58 l136 0
0 132 0 133 115 -115 115 -115 0 -132 0 -133 -263 0 c-287 0 -335 7 -431 58
-67 35 -157 126 -189 188 -75 148 -76 298 -2 445 l23 45 -15 161 c-14 137 -13
207 1 192 2 -2 9 -56 15 -119 6 -63 14 -134 17 -158 l5 -43 52 46 c54 49 102
77 177 104 l46 16 -23 250 c-25 281 -27 355 -13 355 6 0 10 -10 10 -22 0 -33
40 -507 46 -545 l5 -33 219 0 220 0 0 65 c0 68 -16 466 -25 598 -4 69 -3 77
14 77 16 0 18 -17 24 -212z m347 -7 c0 -114 3 -236 6 -270 6 -50 4 -61 -8 -61
-23 0 -28 62 -28 316 0 192 2 224 15 224 13 0 15 -30 15 -209z m686 -741 c5
-656 5 -660 -52 -772 -40 -79 -129 -162 -221 -206 l-78 -37 -292 -3 -293 -3 0
278 0 278 115 -115 c115 -114 115 -115 115 -162 l0 -48 151 0 c146 0 153 1
201 27 139 76 166 265 53 378 -60 60 -114 75 -277 75 l-128 0 0 -132 0 -133
-115 115 -115 115 0 132 0 133 255 0 c282 0 328 -6 428 -55 l67 -34 0 124 c0
77 4 125 10 125 6 0 10 -50 10 -131 l0 -131 45 -51 c25 -29 59 -79 76 -112
l30 -60 -4 514 c-3 342 -2 510 5 503 6 -6 12 -229 14 -612z m-2036 -200 c27
-256 52 -481 54 -500 5 -35 5 -35 -4 -5 -8 23 -95 689 -125 946 -5 48 5 73 17
42 4 -10 30 -227 58 -483z m2368 -362 c-2 -263 -6 -369 -15 -383 -10 -17 -12
-1 -13 91 0 239 14 654 22 654 6 0 8 -147 6 -362z"/>
</g>
</svg>
